<svg id="Layer_1" data-name="Layer 1" xmlns="http://www.w3.org/2000/svg" viewBox="0 0 514 514"><defs><style>.cls-1{stroke:#000;stroke-miterlimit:10;stroke-width:2px;}</style></defs><path class="cls-1" d="M318.58,253a18.76,18.76,0,0,1,12.89-5.28q10.86,0,21.73,0a18.65,18.65,0,0,1,12.67,4.87c3.05,2.88,5.89,6,8.95,8.83a17.13,17.13,0,0,0,9,4.45c3.39.64,6.86.29,10.29.5a6.23,6.23,0,0,1,5.54,5.9v.3a17.31,17.31,0,0,1-2.22,5.31c-1.36,2.63-3,5.08-4.54,7.61a22.1,22.1,0,0,1-5.13,6.09A24.05,24.05,0,0,1,373,297.3c-6,0-12.08,0-18.12,0,0,4.18,0,8.35,0,12.52a32.49,32.49,0,0,1,9.08,11,30.92,30.92,0,0,1,2.17,22,31.66,31.66,0,0,1-13.78,18.09c-.44,3.67-.92,7.33-1.36,11A18.52,18.52,0,0,1,365,381.66a6.2,6.2,0,0,1-3.61,8.2,14.44,14.44,0,0,1-4.59.41q-9.56,0-19.11,0a9.73,9.73,0,0,1-3.87-.51,6.25,6.25,0,0,1-3.79-5.84c0-6.15,0-12.3,0-18.45-2.4,0-4.8,0-7.2,0a7.25,7.25,0,0,0-4.68,1.54c-1.9,1.62-2.82,4-3.92,6.19a18.39,18.39,0,0,1,9.3,9.09c1.34,3.79-2,8-6,7.93-25.59.06-51.18,0-76.77,0a9.4,9.4,0,0,1-9.9-8.87v-.78a9.44,9.44,0,0,1,5.17-7.94,12.39,12.39,0,0,1,6-1q8.12,0,16.22.05a32.62,32.62,0,0,1-2.36-8.2A31,31,0,0,1,260.53,343a26.9,26.9,0,0,1,7-7.78c5.93-4.43,12.29-8.25,18.6-12.1q15.66-9.35,31.51-18.38v-1.24a16.51,16.51,0,0,1-6.86-1.45,20.53,20.53,0,0,1-10.89-12.78c-1-3.06-.86-6.31-.83-9.48a17.32,17.32,0,0,1,1.77-7.85,20.56,20.56,0,0,1,4.2-5.4C309.57,262.06,314.05,257.51,318.58,253Zm3.53,5.22c-4.6,4.62-9.24,9.21-13.83,13.85a10.18,10.18,0,0,0-3,7.34c0,3-.28,6.06.67,8.95a12.15,12.15,0,0,0,16.06,8,12.3,12.3,0,0,0,7.4-7.72,19.14,19.14,0,0,0,.65-6.31q0-14.16,0-28.31A13.51,13.51,0,0,0,322.11,258.25Zm14.15-4.31q0,15.06,0,30.11a19.91,19.91,0,0,1-1.37,7.72,18.72,18.72,0,0,1-11,10.56c-.08,2,0,4,0,6-11.66,6.81-23.38,13.53-34.94,20.51-5.41,3.24-10.85,6.45-16.06,10A25,25,0,0,0,263.8,350a24.69,24.69,0,0,0,10.28,30.65,25.08,25.08,0,0,0,12.85,3.46h30.64c-2.42-4.42-7.53-5.91-11.83-7.81,1.85-3.9,4.37-7.59,5.05-11.94a27.42,27.42,0,0,0,.49-6.77,24.24,24.24,0,0,0-7.08-15.79l4.39-4.39a31.56,31.56,0,0,1,9,23.13,15.86,15.86,0,0,1,4.74-1.18c2.58-.09,5.17,0,7.75,0v-6.19h6.2q0,15.5,0,31h23a11.51,11.51,0,0,0-4.24-4.3c-3.37-1.87-7.3-2-11-2.48.82-6.71,1.67-13.42,2.51-20.13a35.87,35.87,0,0,0,9.69-8.11,22,22,0,0,0,4.16-9,23.78,23.78,0,0,0-1.19-14.83c-2.19-5-6.25-9-10.55-12.27q0-9.3,0-18.58a16.17,16.17,0,0,1-6.2-9.45h6.44a9.66,9.66,0,0,0,4.54,5.16,10.24,10.24,0,0,0,5,1H373A17.27,17.27,0,0,0,383.8,287c3-2.42,4.52-6.14,6.6-9.32a9.38,9.38,0,0,1-4.19-5.21A24.81,24.81,0,0,1,370.6,266c-3-2.82-5.8-5.84-8.79-8.66a12.58,12.58,0,0,0-8.62-3.37C347.55,253.92,341.9,254,336.26,253.94Zm-98.1,124.75a3.08,3.08,0,0,0,0,4.57,4.12,4.12,0,0,0,3,.81c9,0,18.08,0,27.12,0a25.48,25.48,0,0,1-4-3.47c-.73-.87-1.44-1.76-2.15-2.65-7-.06-14,0-21-.07A4.08,4.08,0,0,0,238.16,378.69Z" transform="translate(1 1)"/><path class="cls-1" d="M358,263.51a4.63,4.63,0,1,1-3,5.1A4.66,4.66,0,0,1,358,263.51Z" transform="translate(1 1)"/><path class="cls-1" d="M505.49,459.64Q480,435,454.65,410.34c-3.47-3.3-6.72-7.22-11.44-8.72-4.22-1.54-8.8-.91-12.94.54Q418.83,391.11,407.43,380A111.84,111.84,0,0,0,319.7,210.18q0-19,0-38.06c4,3,8.26,5.88,13.13,7.32a34.46,34.46,0,0,0,30-61.17Q288.42,64.18,214,10.12C207.61,5,200.26.77,192,0h-6.3a36.61,36.61,0,0,0-17.13,6.63Q91.28,62.78,14,118.91A35.1,35.1,0,0,0,0,144.05v4.53c.76,14.63,11.72,28,26,31.38,11.16,3,23.2-.55,31.92-7.85Q58,236.57,58,301a45.89,45.89,0,0,0,45,46.56c33.47.05,66.94,0,100.41,0A111.78,111.78,0,0,0,379,411.2q11,10.59,21.88,21.21c-2.35,6.46-1.28,14.2,3.77,19.09,18.85,18.45,37.87,36.73,56.75,55.14A19.11,19.11,0,0,0,472.1,512h3.48a18.55,18.55,0,0,0,11-5.36q10.17-10.38,20.25-20.85A19.47,19.47,0,0,0,512,475.43v-4.35A20.32,20.32,0,0,0,505.49,459.64Zm-460-298.25A18.44,18.44,0,0,1,16.2,144a18.23,18.23,0,0,1,7.39-12.23Q98.92,77,174.26,22.26c3.1-2.3,6.25-4.79,10.1-5.66a19,19,0,0,1,16.3,3.63Q275.39,74.49,350.1,128.8c3.47,2.46,7.19,4.95,9.21,8.84a18.42,18.42,0,0,1-26.88,23.91Q263.22,111.3,194.05,61a8.18,8.18,0,0,0-8.34-1.23,53,53,0,0,0-6.49,4.46Q112.37,112.82,45.46,161.39Zm98.78,50.46c-.16,39.92.08,79.85-.13,119.78-14.06-.12-28.12.08-42.18-.1C86.77,331,73.72,317.17,74,302c0-47.21-.09-94.42.05-141.63C112.38,132.65,150.59,104.75,188.9,77q57.36,41.73,114.76,83.39.07,24.95,0,49.88a111.94,111.94,0,0,0-70.18,32.09c-.08-10.44.14-20.88-.1-31.32-.58-12.6-11.67-23.54-24.28-23.94-10.36-.23-20.72,0-31.08-.1-5.77.06-11.78-.48-17.25,1.74A25.81,25.81,0,0,0,144.24,211.85ZM200.82,331.6H160.2q0-59.31,0-118.64a9.78,9.78,0,0,1,9.68-9.9c12.4-.12,24.81-.05,37.22,0a9.91,9.91,0,0,1,10.33,10c.06,16,0,32,0,48,.13,1.49-.84,2.71-1.5,4A111.42,111.42,0,0,0,200.82,331.6Zm150.93,77.23a95.79,95.79,0,1,1,46.9-46.2A95.85,95.85,0,0,1,351.75,408.83Zm137.86,71.73c-5.25,5.22-10.09,10.85-15.63,15.76-15.69-14.73-30.94-29.94-46.45-44.86-4-4.17-8.63-7.8-12.22-12.35,2.39-2.56,4.82-5.08,7.26-7.59-7.5-7.29-25.05-24.67-31.44-30.86q3.54-3.66,6.86-7.5c6.45,6.26,24.13,23.7,31.66,31.08,1.74-1.8,3.48-3.6,5.2-5.41a15.41,15.41,0,0,1,3-2.43q29.26,28.25,58.39,56.64C494.63,476,491.82,478.05,489.61,480.56Z" transform="translate(1 1)"/></svg>