<?xml version="1.0" encoding="utf-8"?>
<!-- Generator: Adobe Illustrator 26.0.1, SVG Export Plug-In . SVG Version: 6.00 Build 0)  -->
<svg version="1.1" id="Layer_1" xmlns="http://www.w3.org/2000/svg" xmlns:xlink="http://www.w3.org/1999/xlink" x="0px" y="0px"
	 viewBox="0 0 514 514" style="enable-background:new 0 0 514 514;" xml:space="preserve">
<style type="text/css">
	.st0{fill:#3E665C;}
	.st1{fill:#FFFFFF;stroke:#FFFFFF;stroke-width:2;stroke-miterlimit:10;}
</style>
<circle class="st0" cx="257" cy="257" r="227.5"/>
<g>
	<path class="st1" d="M295.6,255.2c2.1-2.1,5-3.2,7.9-3.3c4.5,0,8.9,0,13.4,0c2.9,0,5.7,1.1,7.8,3c1.9,1.8,3.6,3.7,5.5,5.4
		c1.5,1.4,3.5,2.4,5.5,2.7c2.1,0.4,4.2,0.2,6.3,0.3c1.9,0.2,3.3,1.7,3.4,3.6v0.2c-0.3,1.2-0.7,2.3-1.4,3.3c-0.8,1.6-1.8,3.1-2.8,4.7
		c-0.8,1.4-1.9,2.7-3.2,3.8c-2.5,2.2-5.8,3.4-9.1,3.5c-3.7,0-7.4,0-11.2,0c0,2.6,0,5.1,0,7.7c2.3,1.8,4.3,4.1,5.6,6.8
		c2.1,4.2,2.6,9,1.3,13.6c-1.4,4.6-4.4,8.6-8.5,11.1c-0.3,2.3-0.6,4.5-0.8,6.8c3.7,0.5,6.9,2.7,8.6,6c0.8,1.9-0.1,4.2-2.1,5
		c-0.1,0-0.1,0-0.2,0.1c-0.9,0.2-1.9,0.3-2.8,0.3c-3.9,0-7.9,0-11.8,0c-0.8,0.1-1.6,0-2.4-0.3c-1.4-0.6-2.4-2-2.3-3.6
		c0-3.8,0-7.6,0-11.4c-1.5,0-3,0-4.4,0c-1,0-2.1,0.3-2.9,0.9c-1.2,1-1.7,2.5-2.4,3.8c2.5,1.1,4.6,3.1,5.7,5.6
		c0.8,2.3-1.2,4.9-3.7,4.9c-15.8,0-31.5,0-47.3,0c-3.2,0.2-5.9-2.3-6.1-5.5v-0.5c0.1-2.1,1.3-4,3.2-4.9c1.2-0.5,2.4-0.7,3.7-0.6
		c3.3,0,6.7,0,10,0c-0.7-1.6-1.2-3.3-1.5-5.1c-0.5-4.4,0.5-8.9,2.9-12.6c1.1-1.9,2.6-3.5,4.3-4.8c3.7-2.7,7.6-5.1,11.5-7.5
		c6.4-3.8,12.9-7.6,19.4-11.3v-0.8c-1.5,0-2.9-0.3-4.2-0.9c-3.3-1.5-5.7-4.4-6.7-7.9c-0.6-1.9-0.5-3.9-0.5-5.8
		c0-1.7,0.4-3.3,1.1-4.8c0.7-1.2,1.5-2.4,2.6-3.3C290,260.7,292.8,257.9,295.6,255.2z M297.7,258.4c-2.8,2.8-5.7,5.7-8.5,8.5
		c-1.2,1.2-1.9,2.8-1.8,4.5c0,1.8-0.2,3.7,0.4,5.5c1.1,4,5.3,6.3,9.3,5.1c0.2-0.1,0.4-0.1,0.6-0.2c2.2-0.8,3.8-2.6,4.6-4.8
		c0.3-1.3,0.5-2.6,0.4-3.9c0-5.8,0-11.6,0-17.4C300.7,256.1,299,257,297.7,258.4L297.7,258.4z M306.4,255.7c0,6.2,0,12.4,0,18.5
		c0,1.6-0.3,3.2-0.8,4.8c-1.2,3-3.7,5.4-6.8,6.5c0,1.2,0,2.5,0,3.7c-7.2,4.2-14.4,8.3-21.5,12.6c-3.3,2-6.7,4-9.9,6.2
		c-2.5,1.7-4.5,4.1-5.6,6.9c-2.9,7-0.2,15,6.3,18.9c2.4,1.4,5.1,2.1,7.9,2.1h18.9c-1.5-2.7-4.6-3.6-7.3-4.8c1.1-2.4,2.7-4.7,3.1-7.4
		c0.3-1.4,0.4-2.8,0.3-4.2c-0.2-3.7-1.8-7.1-4.4-9.7l2.7-2.7c3.7,3.8,5.7,8.9,5.5,14.2c0.9-0.4,1.9-0.6,2.9-0.7c1.6-0.1,3.2,0,4.8,0
		v-3.8h3.8c0,6.4,0,12.7,0,19.1h14.2c-0.6-1.1-1.5-2-2.6-2.6c-2.1-1.2-4.5-1.2-6.8-1.5c0.5-4.1,1-8.3,1.5-12.4c2.3-1.3,4.3-3,6-5
		c1.3-1.6,2.1-3.5,2.6-5.5c0.7-3,0.5-6.2-0.7-9.1c-1.3-3.1-3.9-5.5-6.5-7.6c0-3.8,0-7.6,0-11.4c-1.9-1.4-3.3-3.5-3.8-5.8h4
		c0.5,1.4,1.5,2.5,2.8,3.2c1,0.5,2,0.7,3.1,0.6h9c2.4-0.1,4.8-1,6.7-2.6c1.8-1.5,2.8-3.8,4.1-5.7c-1.2-0.7-2.1-1.9-2.6-3.2
		c-3.6-0.2-7-1.6-9.6-4c-1.8-1.7-3.6-3.6-5.4-5.3c-1.4-1.3-3.3-2.1-5.3-2.1C313.4,255.7,309.9,255.8,306.4,255.7L306.4,255.7z
		 M246,332.6c-0.8,0.7-0.8,1.9-0.1,2.7c0,0,0.1,0.1,0.1,0.1c0.5,0.4,1.2,0.6,1.8,0.5c5.5,0,11.1,0,16.7,0c-0.9-0.6-1.7-1.3-2.5-2.1
		c-0.4-0.5-0.9-1.1-1.3-1.6c-4.3,0-8.6,0-12.9,0C247.2,332,246.5,332.2,246,332.6L246,332.6z"/>
	<path class="st1" d="M319.8,261.6c1.5-0.5,3.1,0.2,3.7,1.7s-0.2,3.1-1.7,3.7c-1.5,0.5-3.1-0.2-3.7-1.7c-0.1-0.2-0.1-0.3-0.1-0.5
		C317.8,263.4,318.5,262.1,319.8,261.6z"/>
	<path class="st1" d="M410.7,382.5c-10.5-10.1-20.9-20.2-31.3-30.4c-2.1-2-4.1-4.4-7-5.4c-2.6-0.9-5.4-0.6-8,0.3
		c-4.7-4.5-9.4-9.1-14.1-13.7c19.8-32.5,9.6-74.9-22.9-94.7c-9.4-5.8-20.1-9.2-31.1-9.9c0-7.8,0-15.6,0-23.4
		c2.5,1.8,5.1,3.6,8.1,4.5c11.2,3.5,23.1-2.7,26.6-13.9c2.8-8.9-0.5-18.5-8.1-23.8c-30.6-22.2-61.1-44.4-91.7-66.6
		c-3.9-3.2-8.5-5.8-13.6-6.2h-3.9c-3.8,0.4-7.4,1.8-10.6,4.1c-31.7,23.1-63.5,46.1-95.2,69.2c-5,3.7-8.1,9.3-8.6,15.5v2.8
		c0.5,9,7.2,17.2,16,19.3c6.9,1.8,14.3-0.3,19.7-4.8c0,26.5,0,52.9,0,79.4c-0.2,15.6,12.2,28.4,27.7,28.7c20.6,0,41.2,0,61.9,0
		c8.8,37,46,59.8,83,51c9.1-2.2,17.7-6.2,25.2-11.8c4.5,4.3,9,8.7,13.5,13.1c-1.4,4-0.8,8.7,2.3,11.8c11.6,11.4,23.3,22.6,35,34
		c1.8,1.8,4.1,2.9,6.6,3.3h2.1c2.6-0.3,5-1.5,6.8-3.3c4.2-4.3,8.3-8.5,12.5-12.8c1.7-1.8,2.8-4,3.2-6.4v-2.7
		C414.2,386.8,412.8,384.3,410.7,382.5z M127.3,198.7c-5,3.8-12.1,2.7-15.9-2.3c-1.8-2.4-2.6-5.4-2.1-8.4c0.4-3,2.1-5.7,4.6-7.5
		c30.9-22.5,61.9-45,92.8-67.5c1.9-1.4,3.9-3,6.2-3.5c3.5-0.8,7.2,0,10,2.2c30.7,22.3,61.4,44.6,92.1,66.9c2.1,1.5,4.4,3,5.7,5.4
		c3.1,5.5,1.1,12.4-4.4,15.4c-3.9,2.2-8.6,1.9-12.2-0.7c-28.4-20.6-56.8-41.3-85.2-61.9c-1.4-1.2-3.4-1.5-5.1-0.8
		c-1.4,0.8-2.7,1.7-4,2.7C182.2,158.8,154.8,178.8,127.3,198.7L127.3,198.7z M188.2,229.8c-0.1,24.6,0,49.2-0.1,73.8
		c-8.7-0.1-17.3,0-26-0.1c-9.4-0.3-17.4-8.8-17.2-18.2c0-29.1-0.1-58.2,0-87.3c23.6-17.1,47.2-34.3,70.8-51.4
		c23.6,17.1,47.1,34.3,70.7,51.4c0,10.2,0,20.5,0,30.7c-16.3,1.3-31.6,8.3-43.2,19.8c0-6.4,0.1-12.9-0.1-19.3
		c-0.4-7.8-7.2-14.5-15-14.7c-6.4-0.1-12.8,0-19.1-0.1c-3.6,0-7.3-0.3-10.6,1.1C192.4,217.8,188.4,223.4,188.2,229.8L188.2,229.8z
		 M223,303.6h-25c0-24.4,0-48.7,0-73.1c0-3.3,2.6-6.1,6-6.1c0,0,0,0,0,0c7.6-0.1,15.3,0,22.9,0c3.4-0.1,6.2,2.5,6.4,5.8
		c0,0.1,0,0.2,0,0.3c0,9.9,0,19.7,0,29.6c0.1,0.9-0.5,1.7-0.9,2.5C225,274.9,221.7,289.3,223,303.6z M316,351.2
		c-29.7,13.5-64.7,0.4-78.2-29.3c-13.5-29.7-0.4-64.7,29.3-78.2c29.7-13.5,64.7-0.4,78.2,29.3c7.2,15.8,7.1,34-0.4,49.7
		C338.9,335.3,328.7,345.4,316,351.2L316,351.2z M400.9,395.3c-3.2,3.2-6.2,6.7-9.6,9.7c-9.7-9.1-19.1-18.4-28.6-27.6
		c-2.5-2.6-5.3-4.8-7.5-7.6c1.5-1.6,3-3.1,4.5-4.7c-4.6-4.5-15.4-15.2-19.4-19c1.5-1.5,2.9-3,4.2-4.6c4,3.9,14.9,14.6,19.5,19.1
		c1.1-1.1,2.1-2.2,3.2-3.3c0.6-0.6,1.2-1.1,1.8-1.5c12,11.6,24,23.2,36,34.9C404,392.5,402.3,393.8,400.9,395.3L400.9,395.3z"/>
</g>
</svg>
